<?xml version="1.0" standalone="no"?>
<!DOCTYPE svg PUBLIC "-//W3C//DTD SVG 20010904//EN"
 "http://www.w3.org/TR/2001/REC-SVG-20010904/DTD/svg10.dtd">
<svg version="1.0" xmlns="http://www.w3.org/2000/svg"
 width="1763.000000pt" height="706.000000pt" viewBox="0 0 1763.000000 706.000000"
 preserveAspectRatio="xMidYMid meet">

<g transform="translate(0.000000,706.000000) scale(0.100000,-0.100000)"
fill="#000000" stroke="none">
<path d="M3500 7049 c-448 -46 -866 -221 -1244 -523 -134 -106 -430 -403 -540
-541 -335 -419 -532 -860 -611 -1365 -23 -143 -31 -531 -16 -697 15 -152 52
-380 85 -518 14 -55 23 -101 21 -103 -2 -2 -22 28 -45 66 -51 87 -137 285
-183 422 -72 215 -136 743 -116 961 55 616 236 1130 579 1644 69 104 69 104 4
49 -86 -75 -293 -286 -370 -379 -92 -111 -289 -374 -364 -485 -73 -108 -164
-292 -215 -434 -146 -404 -181 -885 -104 -1406 75 -501 189 -887 394 -1331 30
-65 55 -120 55 -124 0 -11 -78 35 -156 92 -143 107 -244 237 -345 447 -94 196
-181 471 -228 722 -23 123 -60 403 -62 467 l-1 42 -11 -45 c-5 -26 -10 -190
-11 -385 0 -265 4 -370 17 -475 25 -195 63 -403 108 -577 33 -133 50 -176 128
-335 174 -354 369 -667 577 -928 135 -170 423 -457 576 -575 177 -137 460
-300 715 -414 866 -385 1748 -417 2638 -96 376 136 782 392 1165 734 182 163
461 434 524 510 150 181 256 372 353 641 l34 95 -153 -151 c-167 -164 -265
-244 -433 -353 -235 -153 -489 -263 -790 -344 l-120 -32 -355 1 c-380 0 -475
8 -739 59 -405 79 -753 235 -1061 473 -112 87 -385 355 -470 462 -371 466
-503 1024 -394 1670 23 133 87 388 124 495 79 222 203 417 360 569 116 111
213 177 375 256 317 154 627 202 882 136 219 -57 466 -198 629 -361 257 -257
376 -601 344 -995 -19 -223 -62 -390 -131 -507 -95 -160 -383 -362 -677 -474
l-77 -30 160 5 c229 7 368 39 540 122 271 131 455 386 516 714 21 109 15 338
-10 460 -29 134 -89 318 -145 442 -49 109 -43 110 49 8 86 -97 182 -235 225
-325 106 -217 136 -552 80 -880 -19 -110 -75 -320 -105 -391 -8 -20 -14 -39
-12 -41 5 -5 102 106 159 182 108 143 198 335 248 532 45 173 54 269 41 419
-37 416 -181 748 -521 1200 -44 58 -82 110 -85 115 -17 26 271 -130 391 -213
39 -27 108 -83 153 -124 86 -80 281 -316 351 -424 95 -148 170 -346 217 -571
l28 -134 14 70 c10 49 15 141 15 305 1 218 -1 244 -26 360 -103 480 -406 980
-825 1363 -459 419 -1033 694 -1603 767 -120 16 -408 20 -520 9z"/>
<path d="M16355 5000 c-187 -40 -289 -146 -329 -342 -12 -58 -16 -137 -16
-323 l0 -245 -125 0 -125 0 0 -140 0 -140 125 0 125 0 0 -565 0 -565 160 0
160 0 0 565 0 565 170 0 171 0 -3 138 -3 137 -167 3 -168 2 0 215 c0 228 8
295 43 346 40 58 70 74 156 77 63 3 88 0 125 -16 l46 -21 0 144 0 144 -37 11
c-50 14 -257 22 -308 10z"/>
<path d="M17263 4995 c-166 -36 -269 -147 -308 -332 -11 -49 -15 -139 -15
-320 l0 -253 -125 0 -125 0 0 -140 0 -139 123 -3 122 -3 3 -562 2 -563 160 0
160 0 0 565 0 565 165 0 165 0 0 140 0 140 -165 0 -165 0 0 223 c0 246 9 300
57 358 15 17 42 38 60 45 48 21 159 17 211 -6 l42 -19 0 144 c0 162 9 146 -94
164 -79 15 -197 13 -273 -4z"/>
<path d="M15301 4888 c-117 -20 -191 -156 -145 -266 33 -80 99 -125 184 -126
70 -1 125 27 165 83 27 38 30 51 30 115 0 62 -4 78 -27 114 -44 66 -120 95
-207 80z"/>
<path d="M7630 3765 l0 -1085 605 0 605 0 0 160 0 160 -430 0 -430 0 0 350 0
350 430 0 430 0 0 155 0 155 -430 0 -430 0 2 273 3 272 428 3 427 2 0 145 0
145 -605 0 -605 0 0 -1085z"/>
<path d="M9862 4110 c-124 -33 -219 -96 -303 -203 l-39 -49 0 116 0 116 -150
0 -150 0 0 -705 0 -705 160 0 160 0 0 403 c0 231 5 430 11 467 21 135 82 219
198 274 63 30 72 31 191 31 103 0 131 -3 160 -19 72 -38 102 -80 128 -176 12
-44 16 -151 19 -517 l5 -463 159 0 159 0 0 518 c0 303 -4 543 -10 580 -29 175
-143 295 -322 337 -92 21 -284 19 -376 -5z"/>
<path d="M11430 4109 c-134 -34 -214 -81 -315 -183 -151 -152 -204 -280 -212
-512 -8 -218 30 -367 130 -507 147 -206 404 -310 691 -278 189 22 329 85 451
206 61 60 155 184 155 204 0 3 -60 39 -132 79 -119 66 -134 72 -143 56 -31
-53 -106 -142 -142 -170 -79 -60 -143 -78 -278 -79 -110 0 -125 2 -177 27 -79
37 -143 99 -177 172 -29 61 -51 145 -51 191 l0 25 562 0 561 0 -6 103 c-17
307 -137 512 -362 618 -44 21 -115 45 -157 54 -110 22 -302 19 -398 -6z m392
-276 c95 -43 172 -144 192 -250 l6 -33 -385 0 -385 0 6 28 c20 79 78 171 137
216 68 52 129 67 262 63 97 -2 129 -7 167 -24z"/>
<path d="M13237 4116 c-90 -33 -153 -96 -203 -201 l-24 -50 0 113 0 112 -160
0 -160 0 0 -705 0 -705 160 0 160 0 0 379 c0 212 5 414 11 458 24 180 70 267
169 319 27 15 56 19 125 19 76 -1 98 -4 140 -26 l50 -26 56 131 c65 149 65
143 -26 173 -69 22 -248 27 -298 9z"/>
<path d="M13660 3950 l0 -140 350 -2 350 -3 -361 -520 c-199 -286 -374 -539
-391 -562 l-29 -43 651 0 650 0 0 140 0 140 -380 0 c-209 0 -380 2 -380 4 0 2
168 251 373 552 205 302 376 555 381 562 6 9 -118 12 -603 12 l-611 0 0 -140z"/>
<path d="M15180 3385 l0 -705 160 0 160 0 0 705 0 705 -160 0 -160 0 0 -705z"/>
<path d="M9690 1605 l0 -595 80 0 80 0 -2 593 -3 592 -77 3 -78 3 0 -596z"/>
<path d="M7824 2130 c-146 -58 -223 -214 -180 -364 28 -95 89 -150 271 -246
185 -97 215 -128 215 -217 0 -94 -67 -153 -173 -153 -94 0 -159 37 -198 112
l-19 37 -67 -31 c-38 -17 -69 -32 -70 -33 -2 -1 5 -24 14 -51 23 -69 110 -155
183 -180 81 -27 236 -26 311 4 154 61 237 228 195 392 -28 110 -81 159 -274
257 -175 89 -221 138 -209 224 17 128 194 161 292 54 l32 -36 67 36 c36 20 66
39 66 41 0 15 -33 63 -62 91 -58 56 -119 77 -238 80 -87 3 -114 0 -156 -17z"/>
<path d="M11904 2141 c-33 -14 -54 -51 -54 -94 0 -89 108 -131 172 -67 27 28
30 36 25 77 -3 26 -13 54 -24 65 -23 22 -87 32 -119 19z"/>
<path d="M11298 1873 l-3 -138 -62 -3 -63 -3 0 -69 0 -70 65 0 65 0 0 -290 0
-290 80 0 80 0 0 290 0 290 65 0 65 0 0 70 0 70 -65 0 -65 0 0 140 0 140 -80
0 -79 0 -3 -137z"/>
<path d="M8870 1745 c-76 -22 -129 -55 -188 -120 -86 -94 -119 -223 -88 -344
75 -295 428 -398 650 -190 92 85 121 153 121 279 0 126 -29 194 -121 279 -101
95 -245 132 -374 96z m188 -151 c47 -19 88 -58 115 -109 30 -56 30 -174 0
-230 -102 -192 -366 -154 -414 60 -42 186 132 349 299 279z"/>
<path d="M12640 1747 c-112 -33 -197 -100 -251 -199 -33 -61 -34 -67 -34 -173
0 -98 3 -116 26 -165 78 -165 259 -256 434 -220 124 26 232 109 283 218 24 50
27 69 27 162 0 93 -3 112 -27 162 -36 77 -112 152 -193 190 -77 35 -191 46
-265 25z m188 -156 c87 -44 131 -119 132 -219 0 -73 -19 -124 -63 -170 -46
-48 -98 -72 -157 -72 -128 0 -220 100 -220 240 0 101 54 191 135 226 45 20
129 17 173 -5z"/>
<path d="M13777 1750 c-58 -15 -95 -38 -143 -87 l-44 -45 0 56 0 56 -75 0 -75
0 0 -360 0 -360 79 0 79 0 4 233 c5 256 10 281 67 330 61 51 183 61 239 20 47
-35 55 -77 60 -340 l4 -243 79 0 79 0 0 273 c0 149 -4 289 -9 310 -23 99 -105
157 -229 163 -42 2 -94 -1 -115 -6z"/>
<path d="M14600 1745 c-91 -29 -159 -113 -160 -199 0 -96 70 -166 232 -229
133 -52 176 -109 127 -170 -53 -68 -195 -50 -246 31 -9 15 -18 29 -19 30 -5 7
-124 -64 -124 -74 0 -5 11 -26 25 -44 71 -96 212 -133 360 -95 121 32 180 102
180 215 0 113 -52 167 -223 232 -105 39 -158 84 -147 125 9 39 22 51 66 65 49
14 110 -2 137 -37 11 -14 23 -25 26 -25 11 0 106 72 106 81 0 4 -16 24 -35 43
-61 61 -199 84 -305 51z"/>
<path d="M10210 1513 c0 -241 12 -325 55 -399 47 -80 123 -120 252 -131 123
-10 237 22 294 84 74 78 89 155 89 438 l0 225 -79 0 -80 0 -3 -247 c-3 -287
-7 -300 -85 -335 -35 -16 -61 -19 -114 -16 -77 4 -111 23 -144 79 -18 31 -20
55 -23 277 l-4 242 -79 0 -79 0 0 -217z"/>
<path d="M11870 1370 l0 -360 80 0 80 0 0 360 0 360 -80 0 -80 0 0 -360z"/>
</g>
</svg>
